<svg id="Layer_1" data-name="Layer 1" xmlns="http://www.w3.org/2000/svg" viewBox="0 0 65.95 98.83"><path d="M11.09,91.2a9.48,9.48,0,0,1-2.24,3.94,4.49,4.49,0,0,1-3.16,1.22A4.25,4.25,0,0,1,2.36,95a5.24,5.24,0,0,1-1.23-3.69,13.07,13.07,0,0,1,.53-3.89,1.57,1.57,0,0,1,.64-.83,1.82,1.82,0,0,1,1-.32.68.68,0,0,1,.62.36.75.75,0,0,1,0,.74,9.51,9.51,0,0,0-.77,3.7,2.84,2.84,0,0,0,.65,2,2.35,2.35,0,0,0,1.8.7,2.52,2.52,0,0,0,1.69-.65A4.27,4.27,0,0,0,8.57,91.2a11.12,11.12,0,0,1,2.35-4.41,4.6,4.6,0,0,1,3.29-1.23A4.51,4.51,0,0,1,17.88,87a6.67,6.67,0,0,1,1.25,4.4,9.79,9.79,0,0,1-.57,3.43A1.75,1.75,0,0,1,16.78,96a.64.64,0,0,1-.6-.36.71.71,0,0,1,0-.72A6.75,6.75,0,0,0,17,91.68q0-3.48-2.76-3.48a2.6,2.6,0,0,0-1.8.68A5.92,5.92,0,0,0,11.09,91.2Z" style="fill:#301934"/><path d="M18.53,80.19a1.25,1.25,0,0,1,.36.9,1.23,1.23,0,0,1-1.25,1.25H2.14A1.21,1.21,0,0,1,1.25,82a1.2,1.2,0,0,1-.36-.89,1.25,1.25,0,0,1,.36-.9,1.22,1.22,0,0,1,.89-.37H8a0,0,0,0,0,0,0s0,0,0,0A5.08,5.08,0,0,1,6.17,76a4,4,0,0,1,1.21-3.19,6.44,6.44,0,0,1,4.07-1h6.22a1.23,1.23,0,0,1,0,2.45H11.93a5.63,5.63,0,0,0-3,.53,2.22,2.22,0,0,0-.75,1.94,2.92,2.92,0,0,0,1,2.11,3.13,3.13,0,0,0,2.19,1h6.19A1.21,1.21,0,0,1,18.53,80.19Z" style="fill:#301934"/><path d="M19.13,65.32A3.62,3.62,0,0,1,18.08,68a3.8,3.8,0,0,1-2.79,1A3.79,3.79,0,0,1,12,67.44a8.3,8.3,0,0,1-1.17-4.88v-1.1a.19.19,0,0,0-.21-.22h-.27a2.23,2.23,0,0,0-1.77.6A3.43,3.43,0,0,0,8.09,64a11.65,11.65,0,0,0,.58,3.32.73.73,0,0,1-.11.68.7.7,0,0,1-.61.32A1.43,1.43,0,0,1,7.08,68a1.29,1.29,0,0,1-.48-.75A14,14,0,0,1,6.17,64c0-2,.36-3.4,1.08-4.15s2-1.13,4-1.13h6.51a1.2,1.2,0,0,1,1.17,1.18,1.1,1.1,0,0,1-.35.83,1.22,1.22,0,0,1-.82.37l-.6,0a0,0,0,0,0,0,0s0,.05,0,.05A4.68,4.68,0,0,1,19.13,65.32ZM12.6,62.56a5.4,5.4,0,0,0,.66,3,2.05,2.05,0,0,0,1.79,1A2.12,2.12,0,0,0,16.52,66a1.69,1.69,0,0,0,.57-1.28,3.36,3.36,0,0,0-1-2.53,3.83,3.83,0,0,0-2.73-.95H12.8c-.13,0-.2.08-.2.22Z" style="fill:#301934"/><path d="M18.51,53.13a1.32,1.32,0,0,1-.94,2.26H7.66a1.23,1.23,0,0,1-1.25-1.25,1.25,1.25,0,0,1,.36-.9,1.19,1.19,0,0,1,.89-.37H8.79l0,0s0-.05,0-.05a5.47,5.47,0,0,1-1.62-1.92,6.29,6.29,0,0,1-.73-2.62.92.92,0,0,1,.26-.73,1,1,0,0,1,.72-.3,1,1,0,0,1,.73.3,1.1,1.1,0,0,1,.33.73,5,5,0,0,0,1.18,3.4,4.38,4.38,0,0,0,3.23,1.09h4.68A1.31,1.31,0,0,1,18.51,53.13Z" style="fill:#301934"/><path d="M19.13,39.33A6.21,6.21,0,0,1,17.5,44a6.61,6.61,0,0,1-4.85,1.62A7.1,7.1,0,0,1,7.8,44.12a5.34,5.34,0,0,1-1.63-4.19c0-3.32,2-5,5.86-5.16a1.19,1.19,0,0,1,1,.41,1.51,1.51,0,0,1,.38,1v6.65a.17.17,0,0,0,.19.19q3.71-.28,3.7-3.94a7.6,7.6,0,0,0-.41-2.49.7.7,0,0,1,.1-.67.68.68,0,0,1,.6-.32,1.28,1.28,0,0,1,.81.29,1.36,1.36,0,0,1,.48.75A12,12,0,0,1,19.13,39.33ZM8,39.93c0,1.83,1.08,2.85,3.24,3.08.15,0,.22,0,.22-.2V37.44c0-.13-.07-.19-.22-.19C9.12,37.34,8,38.24,8,39.93Z" style="fill:#301934"/><path d="M41.81,95.64a.87.87,0,0,1-.29.68.91.91,0,0,1-.67.28.92.92,0,0,1-.67-.28.91.91,0,0,1-.29-.68V94.29a.19.19,0,0,0-.21-.21h-3.1a1.23,1.23,0,0,1-1.25-1.25,1.25,1.25,0,0,1,.36-.9,1.19,1.19,0,0,1,.89-.37h3.1a.19.19,0,0,0,.21-.22V88.2a1,1,0,0,1,1.63-.69.91.91,0,0,1,.29.69v3.14a.2.2,0,0,0,.22.22h5.54a3.89,3.89,0,0,0,2.14-.39,1.85,1.85,0,0,0,.5-1.53,7.26,7.26,0,0,0-.07-1.06,1,1,0,0,1,.17-.68.66.66,0,0,1,.57-.3,1.1,1.1,0,0,1,.77.29,1.08,1.08,0,0,1,.39.71c.06.68.09,1.18.09,1.52a4.12,4.12,0,0,1-.93,3.08,5,5,0,0,1-3.39.88H42c-.15,0-.22.07-.22.21Z" style="fill:#301934"/><path d="M50.44,73a6.37,6.37,0,0,1,0,8.64,6.8,6.8,0,0,1-4.79,1.56,6.82,6.82,0,0,1-4.79-1.56,6.37,6.37,0,0,1,0-8.64,6.82,6.82,0,0,1,4.79-1.56A6.8,6.8,0,0,1,50.44,73Zm-4.79,1q-4.56,0-4.56,3.31t4.56,3.31q4.56,0,4.56-3.31T45.65,74Z" style="fill:#301934"/><path d="M51.53,56.67a1.25,1.25,0,0,1,.36.9,1.23,1.23,0,0,1-1.25,1.25H35.14a1.21,1.21,0,0,1-.89-.36,1.2,1.2,0,0,1-.36-.89,1.25,1.25,0,0,1,.36-.9,1.22,1.22,0,0,1,.89-.37H41l0,0s0,0,0-.05a5.08,5.08,0,0,1-1.78-3.77,4,4,0,0,1,1.21-3.19,6.44,6.44,0,0,1,4.07-1h6.22a1.23,1.23,0,0,1,0,2.45H44.93a5.63,5.63,0,0,0-3,.53,2.22,2.22,0,0,0-.75,1.94,2.92,2.92,0,0,0,1,2.11,3.13,3.13,0,0,0,2.19,1h6.19A1.21,1.21,0,0,1,51.53,56.67Z" style="fill:#301934"/><path d="M52.13,37.89a6.21,6.21,0,0,1-1.63,4.62,6.61,6.61,0,0,1-4.85,1.62,7.1,7.1,0,0,1-4.85-1.45,5.34,5.34,0,0,1-1.63-4.19c0-3.33,2-5,5.86-5.16a1.19,1.19,0,0,1,1,.41,1.46,1.46,0,0,1,.38,1V41.4a.17.17,0,0,0,.19.19q3.7-.29,3.7-3.94a7.6,7.6,0,0,0-.41-2.49.72.72,0,0,1,.1-.68.7.7,0,0,1,.6-.31,1.3,1.3,0,0,1,.82.29,1.4,1.4,0,0,1,.47.75A12,12,0,0,1,52.13,37.89ZM41,38.49c0,1.83,1.09,2.85,3.25,3.07.14,0,.21,0,.21-.19V36c0-.13-.07-.19-.21-.19C42.13,35.9,41,36.8,41,38.49Z" style="fill:#301934"/><path d="M52.13,25.84a3.62,3.62,0,0,1-1.05,2.68A4.19,4.19,0,0,1,45,28a8.3,8.3,0,0,1-1.17-4.88V22a.19.19,0,0,0-.21-.22h-.27a2.24,2.24,0,0,0-1.77.6,3.43,3.43,0,0,0-.51,2.16,12,12,0,0,0,.58,3.32.73.73,0,0,1-.11.68.69.69,0,0,1-.61.32,1.43,1.43,0,0,1-.87-.28,1.29,1.29,0,0,1-.48-.75,14,14,0,0,1-.43-3.29c0-2,.36-3.4,1.08-4.15s2-1.13,4-1.13h6.51a1.2,1.2,0,0,1,1.17,1.18,1.1,1.1,0,0,1-.35.83,1.22,1.22,0,0,1-.82.37l-.6,0a0,0,0,0,0,0,0s0,0,0,0A4.68,4.68,0,0,1,52.13,25.84ZM45.6,23.08a5.49,5.49,0,0,0,.66,3,2.06,2.06,0,0,0,1.79,1,2.12,2.12,0,0,0,1.47-.52,1.69,1.69,0,0,0,.57-1.28,3.36,3.36,0,0,0-1-2.53,3.83,3.83,0,0,0-2.73-.95H45.8c-.13,0-.2.08-.2.22Z" style="fill:#301934"/><path d="M51.51,11.19a1.33,1.33,0,0,1,.38.93,1.29,1.29,0,0,1-.38.92,1.25,1.25,0,0,1-.94.4H35.21a1.21,1.21,0,0,1-.93-.4,1.26,1.26,0,0,1-.39-.92,1.3,1.3,0,0,1,.39-.93,1.24,1.24,0,0,1,.93-.39H50.57A1.28,1.28,0,0,1,51.51,11.19Z" style="fill:#301934"/><path d="M29.3,91.09a.41.41,0,0,1,.39-.53h.54a.73.73,0,0,1,.46.16.57.57,0,0,1,.24.4,8.39,8.39,0,0,1,.12,1.44,3.55,3.55,0,0,1-1,2.65,3.78,3.78,0,0,1-2.79,1,3.88,3.88,0,0,1-2.77-.92,3.37,3.37,0,0,1-1-2.58,8.39,8.39,0,0,1,.12-1.44.64.64,0,0,1,.24-.4.78.78,0,0,1,.46-.16h.56a.42.42,0,0,1,.34.17.39.39,0,0,1,.06.36,4.4,4.4,0,0,0-.18,1.22,1.51,1.51,0,0,0,.55,1.25,2.46,2.46,0,0,0,1.6.45,2.37,2.37,0,0,0,1.61-.49,1.65,1.65,0,0,0,.56-1.31A4.18,4.18,0,0,0,29.3,91.09Z" style="fill:#6b5a6b"/><path d="M24.55,85.16a3.78,3.78,0,0,1,0-5.12,3.9,3.9,0,0,1,2.75-.94,3.87,3.87,0,0,1,2.75.94,3.78,3.78,0,0,1,0,5.12,3.82,3.82,0,0,1-2.75.94A3.86,3.86,0,0,1,24.55,85.16Zm2.75-1.11c1.4,0,2.1-.48,2.1-1.45s-.7-1.45-2.1-1.45-2.1.49-2.1,1.45S25.9,84.05,27.3,84.05Z" style="fill:#6b5a6b"/><path d="M23.65,67.86a.58.58,0,0,1,.57-.57h6.16a.54.54,0,0,1,.4.17.54.54,0,0,1,.17.4v.73a.58.58,0,0,1-.57.57H27a0,0,0,0,0,0,0l2,.73a.83.83,0,0,1,.39.3.86.86,0,0,1,.14.47v.46a.84.84,0,0,1-.14.47.83.83,0,0,1-.39.3l-2,.73h3.42a.54.54,0,0,1,.4.17.54.54,0,0,1,.17.4v.69a.58.58,0,0,1-.57.57H24.22a.54.54,0,0,1-.4-.17.54.54,0,0,1-.17-.4V73a.8.8,0,0,1,.15-.47.74.74,0,0,1,.38-.29l3.76-1.35s0,0,0,0h0l-3.76-1.35a.69.69,0,0,1-.38-.29.78.78,0,0,1-.15-.47Z" style="fill:#6b5a6b"/><path d="M23.55,60c0-2.26.82-3.4,2.45-3.4a2.58,2.58,0,0,1,2,.77,3.27,3.27,0,0,1,.68,2.23c0,.15,0,.34,0,.56,0,.06,0,.09.08.09h1.62a.54.54,0,0,1,.4.17.54.54,0,0,1,.17.4v.81a.58.58,0,0,1-.57.57H24.27a.64.64,0,0,1-.43-.16.61.61,0,0,1-.21-.4C23.58,61.11,23.55,60.56,23.55,60Zm3.7-.2a1.51,1.51,0,0,0-.3-1,1.06,1.06,0,0,0-.85-.35q-1.05,0-1.05,1.35a2.22,2.22,0,0,0,0,.37.1.1,0,0,0,.11.08h1.94c.06,0,.09,0,.1-.08A2.77,2.77,0,0,0,27.25,59.83Z" style="fill:#6b5a6b"/><path d="M24.19,48.85l6.22-2a.41.41,0,0,1,.37.07.37.37,0,0,1,.17.33v1a.72.72,0,0,1-.15.45.67.67,0,0,1-.4.24l-.77.17a.11.11,0,0,0-.08.1v1.71c0,.07,0,.11.08.11l.77.17a.74.74,0,0,1,.4.25.71.71,0,0,1,.15.44v.94a.38.38,0,0,1-.17.34.4.4,0,0,1-.37.06l-6.22-2A.67.67,0,0,1,23.8,51a.78.78,0,0,1-.15-.47v-1a.76.76,0,0,1,.15-.45A.81.81,0,0,1,24.19,48.85Zm3.86,1.76v-1s0,0,0,0a.07.07,0,0,0-.06,0l-2.61.58h0l2.61.58a0,0,0,0,0,.06,0A.14.14,0,0,0,28.05,50.61Z" style="fill:#6b5a6b"/><path d="M29,37.33l1.47-.53a.4.4,0,0,1,.37.05.38.38,0,0,1,.16.33v.91a.78.78,0,0,1-.15.47.68.68,0,0,1-.39.28l-1.36.44a1.22,1.22,0,0,0-.5.28.68.68,0,0,0-.15.45v.36a.08.08,0,0,0,.09.09h1.89a.54.54,0,0,1,.4.17A.54.54,0,0,1,31,41v.81a.58.58,0,0,1-.57.57H24.27a.64.64,0,0,1-.42-.15.57.57,0,0,1-.21-.4c-.06-.65-.09-1.33-.09-2q0-3,2.25-3A2,2,0,0,1,27,37.2a2.11,2.11,0,0,1,.77,1h0a1.71,1.71,0,0,1,.43-.49A3.24,3.24,0,0,1,29,37.33Zm-2,2.58a1.18,1.18,0,0,0-.25-.8.87.87,0,0,0-.7-.3c-.63,0-.95.37-.95,1.1a3.23,3.23,0,0,0,0,.46c0,.06.05.09.11.09h1.67a.08.08,0,0,0,.09-.09Z" style="fill:#6b5a6b"/><path d="M23.65,27.49a.58.58,0,0,1,.57-.57h.51a.54.54,0,0,1,.4.17.54.54,0,0,1,.17.4v1.22a.08.08,0,0,0,.09.09h5a.54.54,0,0,1,.4.17.5.5,0,0,1,.17.39v.92a.51.51,0,0,1-.17.4.54.54,0,0,1-.4.16h-5a.08.08,0,0,0-.09.09v1.22a.58.58,0,0,1-.57.57h-.51a.54.54,0,0,1-.4-.17.54.54,0,0,1-.17-.4Z" style="fill:#6b5a6b"/><path d="M23.65,17.88a.58.58,0,0,1,.57-.57h.46a.54.54,0,0,1,.4.17.54.54,0,0,1,.17.4V20c0,.06,0,.09.08.09h1a.08.08,0,0,0,.09-.09V18.08a.58.58,0,0,1,.57-.57h.36a.54.54,0,0,1,.4.17.54.54,0,0,1,.17.4V20c0,.06,0,.09.08.09h1.23a.08.08,0,0,0,.09-.09V17.88a.58.58,0,0,1,.57-.57h.46a.54.54,0,0,1,.4.17.54.54,0,0,1,.17.4v3.66a.58.58,0,0,1-.57.57H24.22a.54.54,0,0,1-.4-.17.54.54,0,0,1-.17-.4Z" style="fill:#6b5a6b"/><path d="M56.59,94.21c0-2.27.81-3.4,2.45-3.4a2.57,2.57,0,0,1,2,.77,3.22,3.22,0,0,1,.69,2.23c0,.15,0,.33,0,.56,0,.06,0,.09.08.09h1.62a.58.58,0,0,1,.4.17A.56.56,0,0,1,64,95v.81a.56.56,0,0,1-.17.4.58.58,0,0,1-.4.17H57.31a.62.62,0,0,1-.43-.16.55.55,0,0,1-.21-.4A15.5,15.5,0,0,1,56.59,94.21Zm3.7-.2a1.49,1.49,0,0,0-.3-1,1.08,1.08,0,0,0-.85-.35q-1.05,0-1,1.35a2.22,2.22,0,0,0,0,.37.1.1,0,0,0,.11.08h1.94a.11.11,0,0,0,.1-.08C60.28,94.22,60.29,94.1,60.29,94Z" style="fill:#6b5a6b"/><path d="M57.23,83l6.22-2a.43.43,0,0,1,.54.4v1a.73.73,0,0,1-.16.45.62.62,0,0,1-.39.24l-.77.17a.09.09,0,0,0-.08.1v1.71c0,.07,0,.1.08.11l.77.17a.64.64,0,0,1,.39.25.7.7,0,0,1,.16.44V87a.42.42,0,0,1-.17.34.41.41,0,0,1-.37.06l-6.22-2a.77.77,0,0,1-.39-.27.8.8,0,0,1-.15-.47v-1a.72.72,0,0,1,.15-.45A.75.75,0,0,1,57.23,83Zm3.86,1.76v-1a.05.05,0,0,0,0,0s0,0-.05,0l-2.61.58h0s0,0,0,0l2.61.58s0,0,.05,0A.09.09,0,0,0,61.09,84.79Z" style="fill:#6b5a6b"/><path d="M62,71.51,63.46,71a.36.36,0,0,1,.36,0,.39.39,0,0,1,.17.33v.91a.8.8,0,0,1-.15.47.73.73,0,0,1-.39.28l-1.36.44a1.06,1.06,0,0,0-.5.28.64.64,0,0,0-.15.45v.36a.08.08,0,0,0,.09.09h1.89a.58.58,0,0,1,.4.17.56.56,0,0,1,.17.4V76a.56.56,0,0,1-.17.4.58.58,0,0,1-.4.17H57.31a.66.66,0,0,1-.43-.15.57.57,0,0,1-.2-.4c-.06-.65-.09-1.34-.09-2.05q0-3,2.25-3a2,2,0,0,1,1.17.39,2.12,2.12,0,0,1,.77,1s0,0,0,0,0,0,0,0a1.45,1.45,0,0,1,.43-.49A2.87,2.87,0,0,1,62,71.51Zm-2,2.58a1.17,1.17,0,0,0-.26-.8A.86.86,0,0,0,59,73c-.64,0-.95.37-.95,1.1a3.23,3.23,0,0,0,0,.46.1.1,0,0,0,.11.09H59.9a.08.08,0,0,0,.09-.09Z" style="fill:#6b5a6b"/><path d="M57.23,62.28l6.22-2a.43.43,0,0,1,.54.4v1a.73.73,0,0,1-.16.45.62.62,0,0,1-.39.24l-.77.17c-.06,0-.08,0-.08.1v1.71c0,.07,0,.11.08.11l.77.17a.64.64,0,0,1,.39.25.72.72,0,0,1,.16.44v.94a.42.42,0,0,1-.17.34.41.41,0,0,1-.37.06l-6.22-2a.71.71,0,0,1-.39-.27.78.78,0,0,1-.15-.47V63a.72.72,0,0,1,.15-.45A.75.75,0,0,1,57.23,62.28ZM61.09,64V63a.09.09,0,0,0-.08-.07l-2.61.58a0,0,0,0,0,0,0h0l2.61.58s0,0,.05,0A.09.09,0,0,0,61.09,64Z" style="fill:#6b5a6b"/><path d="M59.39,46.81a4.5,4.5,0,0,1,1-2,2.11,2.11,0,0,1,1.52-.55c1.46,0,2.2.95,2.2,2.85a4.33,4.33,0,0,1-.3,1.65.72.72,0,0,1-.32.37,1,1,0,0,1-.5.13h-.51a.29.29,0,0,1-.28-.16.33.33,0,0,1,0-.33,3.78,3.78,0,0,0,.37-1.56q0-.9-.6-.9a.62.62,0,0,0-.43.14,1.32,1.32,0,0,0-.27.51,4.5,4.5,0,0,1-1,1.92,2.12,2.12,0,0,1-1.52.58,1.84,1.84,0,0,1-1.54-.7,3.19,3.19,0,0,1-.56-2.05,6.35,6.35,0,0,1,.21-1.71.68.68,0,0,1,.28-.39.81.81,0,0,1,.48-.15h.49a.37.37,0,0,1,.31.17.38.38,0,0,1,0,.36,5.15,5.15,0,0,0-.29,1.62c0,.55.19.82.57.82S59.25,47.26,59.39,46.81Z" style="fill:#6b5a6b"/><path d="M57.23,35.78l6.22-2a.43.43,0,0,1,.54.4v1a.73.73,0,0,1-.16.45.62.62,0,0,1-.39.24l-.77.17a.09.09,0,0,0-.08.1v1.71c0,.07,0,.1.08.11l.77.17a.64.64,0,0,1,.39.25.7.7,0,0,1,.16.44v.94a.42.42,0,0,1-.17.34.41.41,0,0,1-.37.06l-6.22-2a.77.77,0,0,1-.39-.27.8.8,0,0,1-.15-.47v-1a.72.72,0,0,1,.15-.45A.75.75,0,0,1,57.23,35.78Zm3.86,1.76v-1a.05.05,0,0,0,0,0s0,0-.05,0L58.4,37s0,0,0,0h0l2.61.58s0,0,.05,0A.09.09,0,0,0,61.09,37.54Z" style="fill:#6b5a6b"/><path d="M56.69,24.11a.52.52,0,0,1,.17-.4.54.54,0,0,1,.4-.17h6.16a.58.58,0,0,1,.4.17.56.56,0,0,1,.17.4v.76a.85.85,0,0,1-.51.82L60,27.42h0s0,0,0,0h3.42a.58.58,0,0,1,.4.17A.56.56,0,0,1,64,28v.76a.56.56,0,0,1-.17.4.58.58,0,0,1-.4.17H57.26a.54.54,0,0,1-.4-.17.52.52,0,0,1-.17-.4V28a.85.85,0,0,1,.51-.82l3.48-1.73a0,0,0,0,0,0,0H57.26a.54.54,0,0,1-.4-.17.52.52,0,0,1-.17-.4Z" style="fill:#6b5a6b"/><path d="M57.23,14.56l6.22-2A.43.43,0,0,1,64,13v1a.73.73,0,0,1-.16.45.62.62,0,0,1-.39.24l-.77.17a.09.09,0,0,0-.08.1v1.71c0,.07,0,.11.08.11l.77.17a.68.68,0,0,1,.39.25.72.72,0,0,1,.16.44v.94a.42.42,0,0,1-.17.34.41.41,0,0,1-.37.06l-6.22-2a.71.71,0,0,1-.39-.27.8.8,0,0,1-.15-.47v-1a.74.74,0,0,1,.15-.45A.75.75,0,0,1,57.23,14.56Zm3.86,1.76v-1a.09.09,0,0,0-.08-.07l-2.61.58a0,0,0,0,0,0,0h0l2.61.58s0,0,.05,0A.09.09,0,0,0,61.09,16.32Z" style="fill:#6b5a6b"/><path d="M62,3l1.47-.53a.38.38,0,0,1,.36.05.39.39,0,0,1,.17.33V3.8a.78.78,0,0,1-.15.47.68.68,0,0,1-.39.28L62.09,5a1.06,1.06,0,0,0-.5.28.68.68,0,0,0-.15.45v.36a.08.08,0,0,0,.09.09h1.89a.58.58,0,0,1,.57.57v.81a.54.54,0,0,1-.17.4.58.58,0,0,1-.4.17H57.31A.66.66,0,0,1,56.88,8a.57.57,0,0,1-.2-.4c-.06-.65-.09-1.34-.09-2.05q0-3,2.25-3A2,2,0,0,1,60,2.91a2.12,2.12,0,0,1,.77,1h0a1.45,1.45,0,0,1,.43-.49A2.87,2.87,0,0,1,62,3ZM60,5.62a1.17,1.17,0,0,0-.26-.8.86.86,0,0,0-.69-.3c-.64,0-.95.37-.95,1.1a3.23,3.23,0,0,0,0,.46.1.1,0,0,0,.11.09H59.9A.08.08,0,0,0,60,6.08Z" style="fill:#6b5a6b"/></svg>